<svg>
<symbol id="reply_icon" xmlns="http://www.w3.org/2000/svg"  viewBox="0 0 512 512">
	<path fill="currentColor" d="M8.309 189.836L184.313 37.851C199.719 24.546 224 35.347 224 56.015v80.053c160.629 1.839 288 34.032 288 186.258c0 61.441-39.581 122.309-83.333 154.132c-13.653 9.931-33.111-2.533-28.077-18.631c45.344-145.012-21.507-183.51-176.59-185.742V360c0 20.7-24.3 31.453-39.687 18.164l-176.004-152c-11.071-9.562-11.086-26.753 0-36.328" />
</symbol>
<symbol id="wrong_icon" xmlns="http://www.w3.org/2000/svg"  viewBox="0 0 24 24">
	<defs>
		<path id="SVGzqMQVdtE" d="M.75 12a11.25 11.25 0 1 0 22.5 0a11.25 11.25 0 0 0-22.5 0m6-3.75h3m-1.5 1.5v-3m6 1.5h3m-1.5 1.5v-3" />
		<path id="SVGHGSBDebM" d="M6.75 17.25c0-2.564 1.192-3.545 2.864-3.545c2.9 0 1.871 3.545 4.772 3.545c1.674 0 2.864-.982 2.864-3.545" />
	</defs>
	<g fill="none" stroke="#000" stroke-linecap="round" stroke-linejoin="round" stroke-width="1.5">
		<use href="#SVGzqMQVdtE" />
		<use href="#SVGHGSBDebM" />
		<use href="#SVGzqMQVdtE" />
		<use href="#SVGHGSBDebM" />
	</g>
</symbol>
<symbol id="delete_icon" xmlns="http://www.w3.org/2000/svg"  viewBox="0 0 24 24">
	<g fill="none">
		<path d="m12.593 23.258l-.011.002l-.071.035l-.02.004l-.014-.004l-.071-.035q-.016-.005-.024.005l-.004.01l-.017.428l.005.02l.01.013l.104.074l.015.004l.012-.004l.104-.074l.012-.016l.004-.017l-.017-.427q-.004-.016-.017-.018m.265-.113l-.013.002l-.185.093l-.01.01l-.003.011l.018.43l.005.012l.008.007l.201.093q.019.005.029-.008l.004-.014l-.034-.614q-.005-.018-.02-.022m-.715.002a.02.02 0 0 0-.027.006l-.006.014l-.034.614q.001.018.017.024l.015-.002l.201-.093l.01-.008l.004-.011l.017-.43l-.003-.012l-.01-.01z" />
		<path fill="currentColor" d="M20 5a1 1 0 1 1 0 2h-1l-.003.071l-.933 13.071A2 2 0 0 1 16.069 22H7.93a2 2 0 0 1-1.995-1.858l-.933-13.07L5 7H4a1 1 0 0 1 0-2zm-6-3a1 1 0 1 1 0 2h-4a1 1 0 0 1 0-2z" />
	</g>
</symbol>
<symbol id="edit_icon" xmlns="http://www.w3.org/2000/svg" viewBox="0 0 24 24">
	<path fill="none" stroke="currentColor" stroke-linecap="round" stroke-linejoin="round" stroke-width="1.5" d="m5 16l-1 4l4-1L19.586 7.414a2 2 0 0 0 0-2.828l-.172-.172a2 2 0 0 0-2.828 0zM15 6l3 3m-5 11h8" />
</symbol>
</svg>